PathFileType	4	(X/Y/Z)	C:/Users/beibeiliu/ov580/test_trc/User2\sequence.35_training_dense_left.trc
DataRate	CameraRate	NumFrames	NumMarkers	Units	OrigDataRate	OrigDataStartFrame	OrigNumFrames
120	120	7	19	mm	120	37	289
Frame#	Time	ThumbCMC			ThumbMCP			ThumbIP			ThumbTip			IndexMCP			IndexPIP			IndexTip			MiddleMCP			MiddlePIP			MiddleTip			RingMCP			RingPIP			RingTip			PinkyMCP			PinkyPIP			PinkyTip			BackHand1			BackHand2			BackHand3	
		X0	Y0	Z0	X1	Y1	Z1	X2	Y2	Z2	X3	Y3	Z3	X4	Y4	Z4	X5	Y5	Z5	X6	Y6	Z6	X7	Y7	Z7	X8	Y8	Z8	X9	Y9	Z9	X10	Y10	Z10	X11	Y11	Z11	X12	Y12	Z12	X13	Y13	Z13	X14	Y14	Z14	X15	Y15	Z15	X16	Y16	Z16	X17	Y17	Z17	X18	Y18	Z18	
36	0.3	-177.197	-29.0435	83.4729	-156.171	-28.4728	52.9211	-135.733	-48.5065	34.1378	-126.695	-80.3479	33.9349	-163.954	-76.8584	12.1748	-139.833	-85.8752	-6.06109	-107.283	-81.0843	8.11845	-162.715	-98.3575	11.3963	-130.513	-101.888	-5.65558	-100.085	-92.4467	19.732	-159.974	-115.438	25.9527	-133.086	-117.829	8.7675	-104.891	-98.1966	30.3161	-155.177	-124.6	44.2499	-129.09	-123.64	26.8036	-101.308	-111.509	38.6905	-189.342	-102.712	75.5306	-204.789	-92.1318	100.018	-198.751	-65.4467	75.3397	
37	0.308333	-176.051	-31.3123	82.8203	-155.116	-29.0521	52.7186	-133.913	-47.4858	35.0866	-125.125	-79.1357	34.4665	-161.45	-77.9519	9.85315	-135.455	-85.042	-6.01429	-104.599	-76.6733	6.62994	-160.912	-98.9926	14.6202	-127.519	-103.468	-2.71452	-98.2166	-92.2808	20.6024	-158.136	-116.36	26.8176	-127.837	-114.575	8.88683	-100.682	-100.853	31.9871	-155.475	-125.849	50.5053	-127.718	-127.293	28.6904	-103.213	-110.717	33.3496	-189.396	-97.2576	76.1394	-204.171	-94.4009	102.967	-198.971	-62.1441	72.6569	
38	0.316667	-176.248	-32.3423	84.1201	-153.099	-24.7656	53.443	-131.912	-46.7472	32.2851	-124.574	-75.2736	37.8275	-162.764	-73.7395	12.9693	-134.061	-80.8876	-7.3467	-103.1	-78.2757	7.88145	-160.098	-93.7522	12.2071	-125.019	-101.909	-2.26984	-94.5301	-89.1408	22.8681	-156.195	-112.359	23.8678	-127.272	-115.318	9.514	-100.598	-100.095	28.6204	-152.622	-123.466	47.0753	-125.84	-127.222	29.0116	-96.0022	-110.383	37.2724	-187.08	-99.8795	76.6878	-203.43	-88.8966	100.491	-199.881	-61.0722	73.2184	
39	0.325	-176.041	-32.9532	84.9764	-154.722	-26.3781	58.0695	-131.886	-48.7183	32.8106	-126.192	-81.0591	37.652	-159.437	-75.8741	9.86418	-135.96	-82.1637	-5.72072	-101.241	-75.8218	8.7311	-157.554	-99.1617	11.3686	-122.612	-102.036	-1.08943	-95.1714	-92.0545	20.3192	-155.733	-111.375	24.4765	-125.119	-115.375	11.3213	-97.8462	-100.455	32.3457	-151.383	-124.952	45.3296	-123.37	-125.161	29.1052	-97.0513	-108.784	40.2254	-189.247	-97.5113	74.1918	-202.416	-91.5913	101.774	-199.318	-59.7928	75.5539	
40	0.333333	-175.403	-28.1058	82.4169	-154.575	-27.3793	55.1651	-133.044	-47.5805	32.0624	-125.511	-79.2301	34.9337	-159.864	-77.1199	10.4974	-132.998	-81.7972	-4.33218	-102.512	-78.7392	10.3978	-158.093	-98.1904	12.1065	-124.992	-102.593	-1.68238	-95.1864	-86.762	19.1741	-155.462	-114.7	25.2982	-126.399	-115.991	10.4685	-99.3861	-97.4747	32.0354	-153.553	-122.422	47.5748	-124.191	-126.266	30.1416	-98.5342	-107.843	37.9749	-187.669	-102.427	73.0231	-203.519	-90.9076	101.911	-200.147	-63.2523	75.5809	
41	0.341667	-177.101	-28.1363	82.787	-155.33	-25.8391	57.9856	-132.683	-48.7179	30.1097	-128.486	-78.7339	35.9102	-161.499	-73.8366	11.9338	-136.007	-82.7192	-4.68634	-104.337	-80.0774	10.7225	-158.762	-99.2132	11.3215	-124.992	-102.689	-2.03368	-95.5416	-91.911	23.3492	-157.239	-116.16	26.2013	-128.182	-114.931	10.5534	-102.203	-98.0049	30.4126	-153.581	-126.923	46.8052	-124.041	-124.972	30.1306	-96.8637	-108.776	43.4651	-189.094	-99.6885	73.9145	-203.824	-87.9415	100.956	-200.342	-60.2341	76.3576	
42	0.35	-175.712	-31.96	81.1893	-156.391	-24.3128	53.3015	-136.163	-49.837	31.8227	-127.969	-74.525	33.7645	-162.698	-73.1774	10.3653	-132.098	-83.9116	-4.44112	-101.029	-77.0092	12.6507	-157.889	-99.8045	10.1042	-124.121	-105.417	-0.582751	-95.6817	-87.3137	23.9311	-156.902	-116.491	26.3579	-125.341	-119.945	13.4243	-102.658	-100.078	32.6307	-153.895	-127.299	47.0606	-124.551	-124.852	29.9368	-100.479	-108.072	42.9818	-190.555	-98.9936	75.7231	-204.096	-89.5457	102.655	-199.968	-62.1306	76.4116	
